<svg width="248" height="35" viewBox="0 0 248 35" fill="none" xmlns="http://www.w3.org/2000/svg">
<style>
.fill {
    fill: #0F172A;
}

@media (prefers-color-scheme: dark) {
    .fill {
        fill: white;
    }
    .group {
        filter: url(#f2)
    }
}
</style>
  <defs>
    <filter id="f2" x="0" y="0" width="200%" height="200%">
      <feOffset result="offOut" in="SourceGraphic" dx="0" dy="0" />
      <feGaussianBlur result="blurOut" in="offOut" stdDeviation="3" />
      <feBlend in="SourceGraphic" in2="blurOut" mode="normal" />
    </filter>
  </defs>
<g class="group">
<path class="fill" d="M11.592 11.744C11.328 11.744 11.052 11.78 10.764 11.852C10.5 11.9 10.248 11.984 10.008 12.104C9.768 12.224 9.564 12.392 9.396 12.608C9.252 12.8 9.18 13.04 9.18 13.328C9.18 13.832 9.468 14.204 10.044 14.444C10.62 14.684 11.604 14.888 12.996 15.056C14.556 15.248 15.816 15.728 16.776 16.496C17.736 17.24 18.216 18.32 18.216 19.736C18.216 21.848 17.472 23.504 15.984 24.704C14.52 25.904 12.48 26.504 9.864 26.504C8.544 26.504 7.404 26.312 6.444 25.928C5.508 25.544 4.728 25.064 4.104 24.488C3.504 23.912 3.048 23.276 2.736 22.58C2.424 21.884 2.256 21.224 2.232 20.6L6.696 19.52C6.768 20.312 7.104 20.996 7.704 21.572C8.304 22.124 9.216 22.4 10.44 22.4C11.28 22.4 12.012 22.268 12.636 22.004C13.26 21.74 13.572 21.272 13.572 20.6C13.572 20.096 13.332 19.7 12.852 19.412C12.372 19.1 11.484 18.884 10.188 18.764C8.46 18.62 7.08 18.128 6.048 17.288C5.04 16.448 4.536 15.332 4.536 13.94C4.536 12.932 4.74 12.032 5.148 11.24C5.58 10.448 6.144 9.788 6.84 9.26C7.536 8.732 8.34 8.336 9.252 8.072C10.188 7.784 11.16 7.64 12.168 7.64C13.416 7.64 14.46 7.808 15.3 8.144C16.14 8.48 16.824 8.9 17.352 9.404C17.88 9.908 18.264 10.46 18.504 11.06C18.768 11.636 18.936 12.176 19.008 12.68L14.616 13.832C14.52 13.184 14.22 12.68 13.716 12.32C13.212 11.936 12.504 11.744 11.592 11.744ZM35.723 15.632C35.771 15.368 35.807 15.164 35.831 15.02C35.855 14.852 35.867 14.672 35.867 14.48C35.867 13.616 35.615 12.944 35.111 12.464C34.607 11.984 33.923 11.744 33.059 11.744C31.835 11.744 30.827 12.176 30.035 13.04C29.267 13.904 28.727 15.056 28.415 16.496L26.399 26H21.863L27.335 0.295998H31.871L29.675 10.592H30.323C31.547 8.624 33.299 7.64 35.579 7.64C37.067 7.64 38.279 8.084 39.215 8.972C40.175 9.86 40.655 11.156 40.655 12.86C40.655 13.196 40.631 13.544 40.583 13.904C40.535 14.24 40.475 14.6 40.403 14.984L38.963 21.716L39.323 21.968L41.627 20.384L43.895 23.768L41.195 25.568C40.283 26.192 39.311 26.504 38.279 26.504C37.751 26.504 37.247 26.408 36.767 26.216C36.287 26.048 35.867 25.796 35.507 25.46C35.147 25.124 34.859 24.716 34.643 24.236C34.427 23.756 34.319 23.216 34.319 22.616C34.319 22.304 34.367 21.92 34.463 21.464L35.723 15.632ZM62.9499 21.716L63.3099 21.968L65.0379 20.744L67.3059 24.128L65.1819 25.568C64.2459 26.192 63.2619 26.504 62.2299 26.504C61.3179 26.504 60.5019 26.252 59.7819 25.748C59.0619 25.244 58.6059 24.536 58.4139 23.624H57.7659C57.5499 24.032 57.2979 24.416 57.0099 24.776C56.7219 25.112 56.3619 25.412 55.9299 25.676C55.5219 25.916 55.0299 26.108 54.4539 26.252C53.9019 26.42 53.2419 26.504 52.4739 26.504C51.5379 26.504 50.6739 26.324 49.8819 25.964C49.0899 25.58 48.3939 25.064 47.7939 24.416C47.2179 23.744 46.7619 22.964 46.4259 22.076C46.0899 21.188 45.9219 20.216 45.9219 19.16C45.9219 17.552 46.1379 16.052 46.5699 14.66C47.0019 13.268 47.6259 12.056 48.4419 11.024C49.2579 9.968 50.2539 9.14 51.4299 8.54C52.6299 7.94 53.9739 7.64 55.4619 7.64C56.7819 7.64 57.8259 7.904 58.5939 8.432C59.3619 8.96 59.8779 9.656 60.1419 10.52H60.7899L61.2939 8.144H65.8299L62.9499 21.716ZM54.2379 22.184C55.1019 22.184 55.8699 22.016 56.5419 21.68C57.2139 21.32 57.7659 20.852 58.1979 20.276C58.6539 19.7 59.0019 19.028 59.2419 18.26C59.4819 17.468 59.6019 16.64 59.6019 15.776C59.6019 14.648 59.2779 13.736 58.6299 13.04C57.9819 12.32 57.1179 11.96 56.0379 11.96C55.1739 11.96 54.4059 12.14 53.7339 12.5C53.0619 12.836 52.4979 13.292 52.0419 13.868C51.5859 14.444 51.2379 15.128 50.9979 15.92C50.7579 16.688 50.6379 17.504 50.6379 18.368C50.6379 19.376 50.9259 20.264 51.5019 21.032C52.1019 21.8 53.0139 22.184 54.2379 22.184ZM87.3329 21.716L87.6929 21.968L89.6369 20.6L91.9049 23.984L89.5649 25.568C89.0609 25.904 88.5569 26.144 88.0529 26.288C87.5729 26.432 87.0929 26.504 86.6129 26.504C85.7009 26.504 84.8849 26.252 84.1649 25.748C83.4449 25.244 82.9889 24.536 82.7969 23.624H82.1489C81.9329 24.032 81.6809 24.416 81.3929 24.776C81.1049 25.112 80.7449 25.412 80.3129 25.676C79.9049 25.916 79.4129 26.108 78.8369 26.252C78.2849 26.42 77.6249 26.504 76.8569 26.504C75.9209 26.504 75.0569 26.324 74.2649 25.964C73.4729 25.58 72.7769 25.064 72.1769 24.416C71.6009 23.744 71.1449 22.964 70.8089 22.076C70.4729 21.188 70.3049 20.216 70.3049 19.16C70.3049 17.552 70.5209 16.052 70.9529 14.66C71.3849 13.268 72.0089 12.056 72.8249 11.024C73.6409 9.968 74.6369 9.14 75.8129 8.54C77.0129 7.94 78.3569 7.64 79.8449 7.64C81.1169 7.64 82.1489 7.928 82.9409 8.504C83.7329 9.08 84.2489 9.824 84.4889 10.736H85.1369L87.3329 0.295998H91.9049L89.6729 10.736L87.3329 21.716ZM78.6209 22.184C79.4849 22.184 80.2529 22.016 80.9249 21.68C81.5969 21.32 82.1489 20.852 82.5809 20.276C83.0369 19.7 83.3849 19.028 83.6249 18.26C83.8649 17.468 83.9849 16.64 83.9849 15.776C83.9849 14.648 83.6609 13.736 83.0129 13.04C82.3649 12.32 81.5009 11.96 80.4209 11.96C79.5569 11.96 78.7889 12.14 78.1169 12.5C77.4449 12.836 76.8809 13.292 76.4249 13.868C75.9689 14.444 75.6209 15.128 75.3809 15.92C75.1409 16.688 75.0209 17.504 75.0209 18.368C75.0209 19.376 75.3089 20.264 75.8849 21.032C76.4849 21.8 77.3969 22.184 78.6209 22.184ZM98.6119 18.548C98.5639 18.74 98.5399 18.944 98.5399 19.16C98.5399 20.024 98.8639 20.744 99.5119 21.32C100.184 21.896 101.06 22.184 102.14 22.184C103.268 22.184 104.168 21.98 104.84 21.572C105.512 21.164 106.028 20.684 106.388 20.132L109.988 22.4C109.7 22.88 109.316 23.36 108.836 23.84C108.38 24.32 107.804 24.764 107.108 25.172C106.436 25.556 105.632 25.868 104.696 26.108C103.784 26.372 102.716 26.504 101.492 26.504C100.388 26.504 99.3679 26.336 98.4319 26C97.5199 25.64 96.7279 25.16 96.0559 24.56C95.4079 23.936 94.8919 23.204 94.5079 22.364C94.1479 21.5 93.9679 20.552 93.9679 19.52C93.9679 17.888 94.2079 16.352 94.6879 14.912C95.1919 13.472 95.9119 12.212 96.8479 11.132C97.7839 10.052 98.9359 9.2 100.304 8.576C101.672 7.952 103.244 7.64 105.02 7.64C106.268 7.64 107.348 7.844 108.26 8.252C109.196 8.636 109.964 9.164 110.564 9.836C111.164 10.484 111.608 11.228 111.896 12.068C112.208 12.908 112.364 13.772 112.364 14.66C112.364 14.948 112.34 15.248 112.292 15.56C112.268 15.848 112.208 16.232 112.112 16.712L111.716 18.548H98.6119ZM104.3 11.744C103.172 11.744 102.188 12.032 101.348 12.608C100.532 13.16 99.9199 13.844 99.5119 14.66H107.936C107.936 13.748 107.648 13.04 107.072 12.536C106.52 12.008 105.596 11.744 104.3 11.744ZM121.123 12.392L120.763 12.176L117.919 14.264L115.507 11.024L118.387 8.864C118.939 8.456 119.515 8.156 120.115 7.964C120.739 7.748 121.327 7.64 121.879 7.64C122.839 7.64 123.679 7.904 124.399 8.432C125.119 8.96 125.551 9.704 125.695 10.664H126.343C126.823 9.656 127.495 8.9 128.359 8.396C129.223 7.892 130.195 7.64 131.275 7.64C132.643 7.64 133.747 8.072 134.587 8.936C135.451 9.776 135.883 10.952 135.883 12.464C135.883 12.776 135.859 13.088 135.811 13.4C135.787 13.688 135.727 14.048 135.631 14.48L135.451 15.272L130.627 15.632L130.735 15.128C130.807 14.768 130.843 14.444 130.843 14.156C130.843 13.46 130.651 12.908 130.267 12.5C129.883 12.092 129.307 11.888 128.539 11.888C127.579 11.888 126.811 12.212 126.235 12.86C125.683 13.508 125.275 14.432 125.011 15.632L123.715 21.68H128.035V26H115.723V21.68H119.179L121.123 12.392ZM147.09 11.744C146.826 11.744 146.55 11.78 146.262 11.852C145.998 11.9 145.746 11.984 145.506 12.104C145.266 12.224 145.062 12.392 144.894 12.608C144.75 12.8 144.678 13.04 144.678 13.328C144.678 13.832 144.966 14.204 145.542 14.444C146.118 14.684 147.102 14.888 148.494 15.056C150.054 15.248 151.314 15.728 152.274 16.496C153.234 17.24 153.714 18.32 153.714 19.736C153.714 21.848 152.97 23.504 151.482 24.704C150.018 25.904 147.978 26.504 145.362 26.504C144.042 26.504 142.902 26.312 141.942 25.928C141.006 25.544 140.226 25.064 139.602 24.488C139.002 23.912 138.546 23.276 138.234 22.58C137.922 21.884 137.754 21.224 137.73 20.6L142.194 19.52C142.266 20.312 142.602 20.996 143.202 21.572C143.802 22.124 144.714 22.4 145.938 22.4C146.778 22.4 147.51 22.268 148.134 22.004C148.758 21.74 149.07 21.272 149.07 20.6C149.07 20.096 148.83 19.7 148.35 19.412C147.87 19.1 146.982 18.884 145.686 18.764C143.958 18.62 142.578 18.128 141.546 17.288C140.538 16.448 140.034 15.332 140.034 13.94C140.034 12.932 140.238 12.032 140.646 11.24C141.078 10.448 141.642 9.788 142.338 9.26C143.034 8.732 143.838 8.336 144.75 8.072C145.686 7.784 146.658 7.64 147.666 7.64C148.914 7.64 149.958 7.808 150.798 8.144C151.638 8.48 152.322 8.9 152.85 9.404C153.378 9.908 153.762 10.46 154.002 11.06C154.266 11.636 154.434 12.176 154.506 12.68L150.114 13.832C150.018 13.184 149.718 12.68 149.214 12.32C148.71 11.936 148.002 11.744 147.09 11.744ZM176.765 19.448C176.093 21.584 174.893 23.3 173.165 24.596C171.461 25.868 169.169 26.504 166.289 26.504C165.233 26.504 164.237 26.336 163.301 26C162.365 25.664 161.549 25.16 160.853 24.488C160.157 23.816 159.605 22.988 159.197 22.004C158.813 20.996 158.621 19.832 158.621 18.512C158.621 17.024 158.873 15.62 159.377 14.3C159.905 12.98 160.661 11.828 161.645 10.844C162.629 9.86 163.817 9.08 165.209 8.504C166.601 7.928 168.185 7.64 169.961 7.64C171.257 7.64 172.397 7.832 173.381 8.216C174.365 8.6 175.181 9.128 175.829 9.8C176.477 10.448 176.969 11.216 177.305 12.104C177.641 12.992 177.809 13.928 177.809 14.912L173.201 15.812C173.201 14.588 172.889 13.64 172.265 12.968C171.665 12.296 170.681 11.96 169.313 11.96C168.449 11.96 167.645 12.128 166.901 12.464C166.181 12.776 165.545 13.22 164.993 13.796C164.465 14.348 164.045 15.008 163.733 15.776C163.445 16.52 163.301 17.324 163.301 18.188C163.301 19.556 163.661 20.564 164.381 21.212C165.101 21.86 166.013 22.184 167.117 22.184C168.629 22.184 169.805 21.848 170.645 21.176C171.485 20.504 172.121 19.556 172.553 18.332L176.765 19.448ZM199.672 14.84C199.672 16.52 199.432 18.08 198.952 19.52C198.472 20.936 197.764 22.16 196.828 23.192C195.892 24.224 194.716 25.04 193.3 25.64C191.908 26.216 190.288 26.504 188.44 26.504C187.384 26.504 186.388 26.348 185.452 26.036C184.54 25.724 183.736 25.268 183.04 24.668C182.344 24.044 181.792 23.288 181.384 22.4C180.976 21.512 180.772 20.504 180.772 19.376C180.772 17.528 181.06 15.884 181.636 14.444C182.212 12.98 182.992 11.744 183.976 10.736C184.984 9.728 186.16 8.96 187.504 8.432C188.872 7.904 190.336 7.64 191.896 7.64C193.024 7.64 194.068 7.82 195.028 8.18C195.988 8.516 196.804 8.996 197.476 9.62C198.172 10.244 198.712 11 199.096 11.888C199.48 12.776 199.672 13.76 199.672 14.84ZM189.124 22.256C189.988 22.232 190.78 22.04 191.5 21.68C192.244 21.32 192.868 20.852 193.372 20.276C193.9 19.676 194.308 18.98 194.596 18.188C194.884 17.396 195.028 16.556 195.028 15.668C195.028 14.42 194.692 13.484 194.02 12.86C193.348 12.212 192.448 11.888 191.32 11.888C190.456 11.888 189.664 12.08 188.944 12.464C188.224 12.824 187.6 13.316 187.072 13.94C186.544 14.54 186.136 15.236 185.848 16.028C185.56 16.82 185.416 17.648 185.416 18.512C185.416 19.736 185.752 20.672 186.424 21.32C187.096 21.944 187.996 22.256 189.124 22.256ZM207.063 33.2H202.527L206.955 12.428L206.595 12.176L204.939 13.4L202.599 10.16L204.543 8.72C205.047 8.36 205.563 8.096 206.091 7.928C206.643 7.736 207.171 7.64 207.675 7.64C208.635 7.64 209.475 7.916 210.195 8.468C210.915 9.02 211.359 9.776 211.527 10.736H212.175C213.351 8.672 215.271 7.64 217.935 7.64C218.751 7.64 219.531 7.796 220.275 8.108C221.019 8.42 221.667 8.876 222.219 9.476C222.795 10.076 223.239 10.82 223.551 11.708C223.887 12.572 224.055 13.568 224.055 14.696C224.055 16.112 223.875 17.528 223.515 18.944C223.179 20.36 222.639 21.632 221.895 22.76C221.151 23.864 220.191 24.764 219.015 25.46C217.863 26.156 216.471 26.504 214.839 26.504C214.071 26.504 213.399 26.408 212.823 26.216C212.247 26.048 211.755 25.82 211.347 25.532C210.939 25.244 210.603 24.92 210.339 24.56C210.075 24.176 209.895 23.792 209.799 23.408H209.151L207.063 33.2ZM213.975 22.184C214.863 22.184 215.643 22.028 216.315 21.716C216.987 21.38 217.539 20.924 217.971 20.348C218.427 19.772 218.763 19.088 218.979 18.296C219.195 17.504 219.303 16.64 219.303 15.704C219.303 14.696 218.979 13.82 218.331 13.076C217.683 12.332 216.783 11.96 215.631 11.96C214.815 11.96 214.083 12.128 213.435 12.464C212.787 12.776 212.235 13.22 211.779 13.796C211.323 14.372 210.963 15.056 210.699 15.848C210.459 16.64 210.339 17.504 210.339 18.44C210.339 19.568 210.663 20.48 211.311 21.176C211.959 21.848 212.847 22.184 213.975 22.184ZM231.59 18.548C231.542 18.74 231.518 18.944 231.518 19.16C231.518 20.024 231.842 20.744 232.49 21.32C233.162 21.896 234.038 22.184 235.118 22.184C236.246 22.184 237.146 21.98 237.818 21.572C238.49 21.164 239.006 20.684 239.366 20.132L242.966 22.4C242.678 22.88 242.294 23.36 241.814 23.84C241.358 24.32 240.782 24.764 240.086 25.172C239.414 25.556 238.61 25.868 237.674 26.108C236.762 26.372 235.694 26.504 234.47 26.504C233.366 26.504 232.346 26.336 231.41 26C230.498 25.64 229.706 25.16 229.034 24.56C228.386 23.936 227.87 23.204 227.486 22.364C227.126 21.5 226.946 20.552 226.946 19.52C226.946 17.888 227.186 16.352 227.666 14.912C228.17 13.472 228.89 12.212 229.826 11.132C230.762 10.052 231.914 9.2 233.282 8.576C234.65 7.952 236.222 7.64 237.998 7.64C239.246 7.64 240.326 7.844 241.238 8.252C242.174 8.636 242.942 9.164 243.542 9.836C244.142 10.484 244.586 11.228 244.874 12.068C245.186 12.908 245.342 13.772 245.342 14.66C245.342 14.948 245.318 15.248 245.27 15.56C245.246 15.848 245.186 16.232 245.09 16.712L244.694 18.548H231.59ZM237.278 11.744C236.15 11.744 235.166 12.032 234.326 12.608C233.51 13.16 232.898 13.844 232.49 14.66H240.914C240.914 13.748 240.626 13.04 240.05 12.536C239.498 12.008 238.574 11.744 237.278 11.744Z" />
<rect y="31" width="248" height="4" class="fill"/>
</g>
<defs>
</defs>
</svg>
